<?xml version="1.0" standalone="no"?>
<!DOCTYPE svg PUBLIC "-//W3C//DTD SVG 20010904//EN"
 "http://www.w3.org/TR/2001/REC-SVG-20010904/DTD/svg10.dtd">
<svg version="1.0" xmlns="http://www.w3.org/2000/svg"
 width="512.000000pt" height="512.000000pt" viewBox="0 0 512.000000 512.000000"
 preserveAspectRatio="xMidYMid meet">
<metadata>
Created by potrace 1.11, written by Peter Selinger 2001-2013
</metadata>
<g transform="translate(0.000000,512.000000) scale(0.100000,-0.100000)"
fill="#000000" stroke="none">
<path d="M0 2560 l0 -2560 2560 0 2560 0 0 2560 0 2560 -2560 0 -2560 0 0
-2560z m2674 1942 c1164 -671 1603 -927 1614 -940 18 -23 18 -1981 0 -2004
-15 -19 -1710 -998 -1728 -998 -18 0 -1713 979 -1727 998 -19 23 -19 1981 0
2004 15 20 1706 998 1726 998 8 0 59 -26 115 -58z"/>
<path d="M2150 4194 c-184 -107 -516 -299 -737 -426 -222 -128 -403 -235 -403
-238 0 -3 168 -104 373 -224 455 -267 416 -242 429 -271 15 -33 -12 -75 -48
-75 -16 0 -183 92 -419 230 -216 127 -396 230 -399 230 -3 0 -6 -387 -6 -861
0 -688 3 -860 13 -856 7 2 187 104 401 226 214 121 397 221 407 221 22 0 59
-34 59 -54 0 -8 -3 -21 -6 -30 -3 -8 -185 -117 -405 -242 -219 -125 -399 -230
-399 -233 0 -6 1456 -851 1481 -859 5 -2 9 176 9 457 0 448 1 462 20 481 25
25 55 25 80 0 19 -19 20 -33 20 -481 0 -280 4 -459 9 -457 24 8 1481 853 1481
859 0 3 -177 106 -392 229 -216 122 -399 229 -405 238 -7 9 -13 24 -13 34 0
23 35 58 58 58 10 0 193 -100 407 -221 214 -122 395 -224 402 -226 11 -4 13
162 13 856 0 474 -3 861 -6 861 -3 0 -183 -104 -400 -231 -421 -246 -433 -251
-463 -198 -13 24 -13 29 1 50 8 14 186 124 407 253 215 126 391 232 391 235 0
4 -132 83 -292 176 -696 402 -1189 685 -1194 685 -2 0 -4 -209 -4 -465 0 -452
-1 -466 -20 -485 -11 -11 -29 -20 -40 -20 -11 0 -29 9 -40 20 -19 19 -20 33
-20 485 0 256 -3 465 -7 464 -5 0 -159 -88 -343 -195z m443 -895 c84 -43 586
-336 605 -352 l22 -20 0 -378 c0 -289 -3 -379 -12 -387 -45 -37 -627 -362
-648 -362 -21 0 -603 325 -647 362 -10 8 -13 98 -13 387 0 207 4 381 8 387 6
9 495 297 607 357 36 20 50 20 78 6z"/>
<path d="M2328 3036 c-125 -72 -228 -133 -228 -136 0 -3 104 -65 230 -139
l230 -133 230 133 c127 74 230 136 230 139 -1 4 -446 263 -460 266 -3 1 -107
-57 -232 -130z"/>
<path d="M2030 2512 l0 -269 223 -128 c122 -70 225 -130 230 -132 4 -2 7 117
7 265 l0 269 -222 128 c-123 71 -226 130 -230 132 -5 2 -8 -117 -8 -265z"/>
<path d="M2858 2649 l-228 -131 0 -270 0 -270 33 19 c17 10 121 70 230 132
l197 114 0 268 c0 148 -1 269 -2 269 -2 0 -105 -59 -230 -131z"/>
</g>
</svg>
